<?xml version="1.0" encoding="utf-8"?>
<!--Designed by Vexels.com - 2017 All Rights Reserved - https://vexels.com/terms-and-conditions/-->
<!DOCTYPE svg PUBLIC "-//W3C//DTD SVG 1.1//EN" "http://www.w3.org/Graphics/SVG/1.1/DTD/svg11.dtd">
<svg version="1.1" id="Layer_1" xmlns="http://www.w3.org/2000/svg" xmlns:xlink="http://www.w3.org/1999/xlink" x="0px" y="0px"
	 width="1200px" height="1200px" viewBox="0 0 1200 1200" enable-background="new 0 0 1200 1200" xml:space="preserve">
<g>
	<g>
		<g>
			<path fill="#012B4F" d="M267.478,845.366h658.37l12.482-112.98c0,0-0.939-13.663-1.941-16.097
				c-18.092-47.042-97.797-62.903-97.797-62.903l-47.25-119.241c-9.588-21.976-26.748-24.727-26.748-24.727
				c-143.254-28.798-350.292-5.482-350.292-5.482c-24.012,4.119-28.162,19.224-28.162,19.224l-47.982,128.18
				c-55.945,26.164-65.438,49.132-69.482,58.084c-1.563,3.479-3.461,10.902-4.453,15.492
				C257.302,757.087,266.533,837.163,267.478,845.366z M758.406,803.998c0,10.715-8.703,19.401-19.449,19.401H474.816
				c-10.693,0-19.398-8.687-19.398-19.401V757.84c0-10.72,8.705-19.419,19.398-19.419h264.141c10.746,0,19.449,8.699,19.449,19.419
				V803.998z M845.453,737.027c26.125,0,47.309,21.188,47.309,47.329c0,26.116-21.184,47.299-47.309,47.299
				c-26.111,0-47.25-21.183-47.25-47.299C798.203,758.215,819.342,737.027,845.453,737.027z M368.681,639.644l41.32-101.254
				c1.889-8.561,17.15-10.985,17.15-10.985c134.031-21.353,313.12-1.202,313.12-1.202c22.229,1.303,27.318,12.818,27.318,12.818
				l42.525,103.062c5.717,12.166-12.639,7.319-12.639,7.319c-131.516-14.634-423.028-3.035-423.028-3.035
				C364.265,646.98,368.681,639.644,368.681,639.644z M362.855,737.027c26.123,0,47.303,21.188,47.303,47.329
				c0,26.116-21.18,47.299-47.303,47.299c-26.117,0-47.295-21.183-47.295-47.299C315.56,758.215,336.738,737.027,362.855,737.027z"
				/>
			<path fill="#012B4F" d="M290.228,897.463c2.787,4.689,7.084,10.776,16.424,21.927c17.777,21.235,103.506,23.304,103.506,23.304
				h385.276c87.152,9.971,109.27-36.605,112.637-45.23H290.228z"/>
		</g>
		<path fill="#012B4F" d="M891.395,1000.032c0,10.759-8.705,19.458-19.398,19.458H834.08c-10.758,0-19.463-8.699-19.463-19.458
			v-80.411c0-10.725,8.705-19.433,19.463-19.433h37.916c10.693,0,19.398,8.708,19.398,19.433V1000.032z"/>
		<path fill="#012B4F" d="M382.736,1000.032c0,10.759-8.705,19.458-19.402,19.458h-37.967c-10.752,0-19.402-8.699-19.402-19.458
			v-80.411c0-10.725,8.65-19.433,19.402-19.433h37.967c10.697,0,19.402,8.708,19.402,19.433V1000.032z"/>
		<path fill="#012B4F" d="M909.229,621.862c0,18.174-14.734,32.916-32.883,32.916c-18.195,0-32.93-14.742-32.93-32.916
			c0-18.161,14.734-32.922,32.93-32.922C894.494,588.94,909.229,603.701,909.229,621.862z"/>
		<path fill="#012B4F" d="M333.386,621.862c0,18.174-14.787,32.916-32.93,32.916c-18.141,0-32.879-14.742-32.879-32.916
			c0-18.161,14.738-32.922,32.879-32.922C318.599,588.94,333.386,603.701,333.386,621.862z"/>
	</g>
	<g>
		<path fill="#5EA7AC" d="M519.798,296.946c-3.689-5.699-4.451-13.662-4.451-13.662s-4.184,6.953-8.721,10.623
			c-4.537,3.68-23.643,18.191-11.582,34.898c6.57,7.98,17.957,9.117,24.879,2.979C526.851,325.657,530.748,314.424,519.798,296.946z
			"/>
		<path fill="#5EA7AC" d="M499.943,404.637c-3.684-5.695-4.445-13.672-4.445-13.672s-4.184,6.962-8.721,10.632
			c-4.537,3.667-23.648,18.184-11.586,34.895c6.582,7.972,17.959,9.113,24.891,2.974
			C507.001,433.343,510.89,422.109,499.943,404.637z"/>
		<path fill="#5EA7AC" d="M406.865,360.521c-2.873-6.147-2.541-14.142-2.541-14.142s-5.086,6.339-10.09,9.348
			c-4.994,3.018-25.889,14.817-16.205,33.004c5.43,8.796,16.549,11.456,24.252,6.327
			C409.966,389.924,415.347,379.326,406.865,360.521z"/>
		<path fill="#5EA7AC" d="M372.595,464.522c-2.883-6.148-2.557-14.146-2.557-14.146s-5.086,6.326-10.084,9.344
			c-4.994,3.03-25.889,14.813-16.205,33.013c5.43,8.787,16.549,11.451,24.248,6.318
			C375.699,493.921,381.064,483.323,372.595,464.522z"/>
		<path fill="#5EA7AC" d="M779.93,360.521c2.877-6.147,2.555-14.142,2.555-14.142s5.086,6.339,10.088,9.348
			c4.982,3.018,25.881,14.817,16.207,33.004c-5.434,8.796-16.559,11.456-24.252,6.327
			C776.828,389.924,771.455,379.326,779.93,360.521z"/>
		<path fill="#5EA7AC" d="M814.205,464.522c2.877-6.148,2.555-14.146,2.555-14.146s5.09,6.326,10.088,9.344
			c4.986,3.03,25.891,14.813,16.207,33.013c-5.43,8.787-16.555,11.451-24.248,6.318
			C811.104,493.921,805.736,483.323,814.205,464.522z"/>
		<path fill="#5EA7AC" d="M354.376,297.16c-1.627-6.593,0.258-14.36,0.258-14.36s-6.223,5.203-11.721,7.202
			c-5.479,1.973-28.271,9.461-22.332,29.198c3.604,9.68,13.998,14.478,22.549,10.934
			C351.673,326.611,359.013,317.268,354.376,297.16z"/>
		<path fill="#5EA7AC" d="M300.451,392.467c-1.615-6.592,0.254-14.373,0.254-14.373s-6.209,5.216-11.705,7.197
			c-5.484,1.99-28.283,9.47-22.344,29.212c3.613,9.688,13.998,14.473,22.553,10.938
			C297.765,421.913,305.101,412.557,300.451,392.467z"/>
		<path fill="#5EA7AC" d="M246.539,487.761c-1.627-6.575,0.258-14.36,0.258-14.36s-6.223,5.208-11.713,7.202
			c-5.49,1.98-28.279,9.466-22.346,29.198c3.609,9.688,14.008,14.478,22.551,10.933
			C243.835,517.212,251.181,507.863,246.539,487.761z"/>
		<path fill="#5EA7AC" d="M192.623,583.075c-1.625-6.592,0.248-14.377,0.248-14.377s-6.213,5.217-11.717,7.211
			c-5.482,1.985-28.271,9.466-22.336,29.193c3.617,9.684,13.998,14.478,22.555,10.946
			C189.91,612.519,197.255,603.165,192.623,583.075z"/>
		<path fill="#5EA7AC" d="M138.701,678.378c-1.627-6.597,0.248-14.373,0.248-14.373s-6.217,5.221-11.703,7.202
			c-5.49,1.981-28.283,9.461-22.34,29.202c3.604,9.684,13.998,14.474,22.549,10.938
			C135.998,707.816,143.347,698.468,138.701,678.378z"/>
		<path fill="#5EA7AC" d="M84.767,773.676c-1.605-6.588,0.27-14.359,0.27-14.359s-6.221,5.198-11.721,7.188
			c-5.473,1.985-28.271,9.475-22.34,29.198c3.617,9.692,14.01,14.481,22.549,10.946C82.085,803.118,89.417,793.771,84.767,773.676z"
			/>
		<path fill="#5EA7AC" d="M668.172,296.946c3.684-5.699,4.445-13.662,4.445-13.662s4.176,6.953,8.723,10.623
			c4.537,3.68,23.639,18.191,11.576,34.898c-6.57,7.98-17.955,9.117-24.891,2.979C661.105,325.657,657.213,314.424,668.172,296.946z
			"/>
		<path fill="#5EA7AC" d="M688.018,404.637c3.684-5.695,4.451-13.672,4.451-13.672s4.17,6.962,8.721,10.632
			c4.533,3.667,23.629,18.184,11.578,34.895c-6.58,7.972-17.961,9.113-24.885,2.974
			C680.951,433.343,677.064,422.109,688.018,404.637z"/>
		<path fill="#5EA7AC" d="M845.623,297.16c1.625-6.593-0.262-14.36-0.262-14.36s6.227,5.203,11.717,7.202
			c5.492,1.973,28.275,9.461,22.338,29.198c-3.615,9.68-14.004,14.478-22.547,10.934
			C848.336,326.611,840.979,317.268,845.623,297.16z"/>
		<path fill="#5EA7AC" d="M899.549,392.467c1.615-6.592-0.262-14.373-0.262-14.373s6.219,5.216,11.713,7.197
			c5.486,1.99,28.279,9.47,22.342,29.212c-3.611,9.688-14.008,14.473-22.551,10.938C902.24,421.913,894.898,412.557,899.549,392.467
			z"/>
		<path fill="#5EA7AC" d="M953.461,487.761c1.615-6.575-0.262-14.36-0.262-14.36s6.236,5.208,11.723,7.202
			c5.486,1.98,28.27,9.466,22.336,29.198c-3.619,9.688-14.004,14.478-22.551,10.933C956.16,517.212,948.82,507.863,953.461,487.761z
			"/>
		<path fill="#5EA7AC" d="M1007.387,583.075c1.619-6.592-0.258-14.377-0.258-14.377s6.215,5.217,11.705,7.211
			c5.486,1.985,28.287,9.466,22.34,29.193c-3.613,9.684-13.994,14.478-22.549,10.946
			C1010.078,612.519,1002.729,603.165,1007.387,583.075z"/>
		<path fill="#5EA7AC" d="M1061.299,678.378c1.619-6.597-0.248-14.373-0.248-14.373s6.213,5.221,11.713,7.202
			c5.486,1.981,28.275,9.461,22.34,29.202c-3.617,9.684-14.012,14.474-22.559,10.938
			C1063.998,707.816,1056.658,698.468,1061.299,678.378z"/>
		<path fill="#5EA7AC" d="M1115.221,773.676c1.629-6.588-0.25-14.359-0.25-14.359s6.215,5.198,11.699,7.188
			c5.496,1.985,28.293,9.475,22.352,29.198c-3.625,9.692-14.004,14.481-22.555,10.946
			C1117.92,803.118,1110.568,793.771,1115.221,773.676z"/>
		<path fill="#5EA7AC" d="M600.71,358.117c-4.529-5.051-6.531-12.792-6.531-12.792s-3.045,7.515-6.945,11.864
			c-3.91,4.324-20.5,21.653-5.975,36.278c7.75,6.832,19.168,6.179,25.045-0.962C612.191,385.365,614.264,373.67,600.71,358.117z"/>
	</g>
	<path fill="#5EA7AC" d="M959.174,251.016H240.828c-10.373,0-18.854-8.486-18.854-18.854l0,0c0-10.372,8.48-18.862,18.854-18.862
		h718.346c10.371,0,18.85,8.49,18.85,18.862l0,0C978.023,242.529,969.545,251.016,959.174,251.016z"/>
	<g>
		<path fill="#5EA7AC" d="M281.781,180.51L281.781,180.51c-9.313,0-16.859,7.55-16.859,16.863v27.569
			c0,5.617,4.551,10.158,10.164,10.158h13.393c5.607,0,10.166-4.541,10.166-10.158v-27.569
			C298.644,188.06,291.085,180.51,281.781,180.51z"/>
		<path fill="#5EA7AC" d="M334.818,180.51c-9.313,0-16.859,7.55-16.859,16.863v27.569c0,5.617,4.551,10.158,10.154,10.158h13.406
			c5.609,0,10.154-4.541,10.154-10.158v-27.569C351.673,188.06,344.132,180.51,334.818,180.51z"/>
		<path fill="#5EA7AC" d="M387.855,180.51c-9.313,0-16.867,7.55-16.867,16.863v27.569c0,5.617,4.555,10.158,10.172,10.158h13.393
			c5.613,0,10.162-4.541,10.162-10.158v-27.569C404.714,188.06,397.16,180.51,387.855,180.51z"/>
		<path fill="#5EA7AC" d="M440.892,180.51c-9.313,0-16.857,7.55-16.857,16.863v27.569c0,5.617,4.545,10.158,10.162,10.158h13.389
			c5.611,0,10.166-4.541,10.166-10.158v-27.569C457.751,188.06,450.203,180.51,440.892,180.51z"/>
		<path fill="#5EA7AC" d="M493.929,180.51c-9.316,0-16.867,7.55-16.867,16.863v27.569c0,5.617,4.555,10.158,10.172,10.158h13.389
			c5.611,0,10.166-4.541,10.166-10.158v-27.569C510.789,188.06,503.24,180.51,493.929,180.51z"/>
		<path fill="#5EA7AC" d="M546.962,180.51c-9.316,0-16.859,7.55-16.859,16.863v27.569c0,5.617,4.551,10.158,10.168,10.158h13.389
			c5.611,0,10.162-4.541,10.162-10.158v-27.569C563.822,188.06,556.277,180.51,546.962,180.51z"/>
		<path fill="#5EA7AC" d="M600,180.51c-9.316,0-16.871,7.55-16.871,16.863v27.569c0,5.617,4.559,10.158,10.176,10.158h13.379
			c5.631,0,10.186-4.541,10.186-10.158v-27.569C616.869,188.06,609.301,180.51,600,180.51z"/>
		<path fill="#5EA7AC" d="M653.043,180.51L653.043,180.51c-9.318,0-16.869,7.55-16.869,16.863v27.569
			c0,5.617,4.555,10.158,10.168,10.158h13.383c5.621,0,10.172-4.541,10.172-10.158v-27.569
			C669.896,188.06,662.352,180.51,653.043,180.51z"/>
		<path fill="#5EA7AC" d="M706.07,180.51c-9.313,0-16.867,7.55-16.867,16.863v27.569c0,5.617,4.555,10.158,10.176,10.158h13.385
			c5.621,0,10.17-4.541,10.17-10.158v-27.569C722.934,188.06,715.375,180.51,706.07,180.51z"/>
		<path fill="#5EA7AC" d="M759.111,180.51c-9.309,0-16.863,7.55-16.863,16.863v27.569c0,5.617,4.551,10.158,10.168,10.158h13.389
			c5.611,0,10.17-4.541,10.17-10.158v-27.569C775.975,188.06,768.426,180.51,759.111,180.51z"/>
		<path fill="#5EA7AC" d="M812.137,180.51c-9.305,0-16.855,7.55-16.855,16.863v27.569c0,5.617,4.551,10.158,10.166,10.158h13.385
			c5.627,0,10.186-4.541,10.186-10.158v-27.569C829.018,188.06,821.459,180.51,812.137,180.51z"/>
		<path fill="#5EA7AC" d="M865.178,180.51c-9.309,0-16.859,7.55-16.859,16.863v27.569c0,5.617,4.555,10.158,10.168,10.158h13.389
			c5.615,0,10.17-4.541,10.17-10.158v-27.569C882.045,188.06,874.496,180.51,865.178,180.51z"/>
		<path fill="#5EA7AC" d="M918.211,180.51L918.211,180.51c-9.309,0-16.859,7.55-16.859,16.863v27.569
			c0,5.617,4.555,10.158,10.166,10.158h13.389c5.621,0,10.176-4.541,10.176-10.158v-27.569
			C935.082,188.06,927.527,180.51,918.211,180.51z"/>
	</g>
</g>
</svg>
